PathFileType  4	(X/Y/Z) C:\Users\antoi\Documents\MyRepositories\mobilecap\ResultsAnalysis
DataRate	CameraRate	NumFrames	NumMarkers	Units	OrigDataRate	OrigDataStartFrame	OrigNumFrames
100.0	100.0	4	51	mm	100.0	1	136
Frame#	Time	r_knee			r_shank_antsup			r_ankle			r_calc			r_5meta			r_toe			L_knee			L_shank_antsup			L_ankle			L_calc			L_5meta			L_toe			r_sh2			r_sh3			r_sh4			L_sh2			L_sh3			r_thigh1			r_thigh2			r_thigh3			r_thigh4			r_thigh5			L_thigh1			L_thigh2			L_thigh3			L_thigh4			r.ASIS			r.PSIS			L.ASIS			L.PSIS			C7			R_Shoulder			L_Shoulder			R_Sternum			L_Sternum			R_humerus			R_elbow_med			R_elbow_lat			R_forearm			R_wrist_radius			R_wrist_ulna			L_humerus			L_elbow_med			L_elbow_lat			L_forearm			L_wrist_radius			L_wrist_ulna			R_HJC			L_HJC			R_HJC_reg			L_HJC_reg			
		X1	Y1	Z1	X2	Y2	Z2	X3	Y3	Z3	X4	Y4	Z4	X5	Y5	Z5	X6	Y6	Z6	X7	Y7	Z7	X8	Y8	Z8	X9	Y9	Z9	X10	Y10	Z10	X11	Y11	Z11	X12	Y12	Z12	X13	Y13	Z13	X14	Y14	Z14	X15	Y15	Z15	X16	Y16	Z16	X17	Y17	Z17	X18	Y18	Z18	X19	Y19	Z19	X20	Y20	Z20	X21	Y21	Z21	X22	Y22	Z22	X23	Y23	Z23	X24	Y24	Z24	X25	Y25	Z25	X26	Y26	Z26	X27	Y27	Z27	X28	Y28	Z28	X29	Y29	Z29	X30	Y30	Z30	X31	Y31	Z31	X32	Y32	Z32	X33	Y33	Z33	X34	Y34	Z34	X35	Y35	Z35	X36	Y36	Z36	X37	Y37	Z37	X38	Y38	Z38	X39	Y39	Z39	X40	Y40	Z40	X41	Y41	Z41	X42	Y42	Z42	X43	Y43	Z43	X44	Y44	Z44	X45	Y45	Z45	X46	Y46	Z46	X47	Y47	Z47	X48	Y48	Z48	X49	Y49	Z49	X50	Y50	Z50	X51	Y51	Z51	

1	0.00000000	-58.93383	535.32120	-114.75561	10.43145	429.89748	-124.62960	45.17155	88.71767	-147.19682	-1.78941	49.35452	-206.58628	191.94308	59.77108	-98.31448	219.23719	109.77496	-159.83073	-444.76092	534.50212	-428.18403	-459.79088	418.82680	-407.13434	-715.36219	171.36525	-391.83963	-786.30928	176.84331	-341.27022	-624.61116	41.10320	-416.77174	-591.44702	48.88425	-345.95442	55.48112	326.98545	-146.97445	-47.93337	396.08181	-83.22606	1.52438	289.42025	-92.82833	-530.89783	457.80268	-449.74494	-573.50813	344.42545	-454.11451	-61.32973	782.81880	-131.46662	-19.60203	680.46934	-149.39611	-32.23003	641.42984	-93.35091	-131.49747	740.78794	-52.75031	-86.00928	632.05587	-78.46385	-279.27501	745.29809	-457.20162	-317.04523	614.58453	-444.48560	-387.30024	772.59237	-474.40631	-425.48028	640.93817	-452.10911	-169.59054	1003.09212	-126.05444	-381.76850	1028.82500	-194.99446	-179.44851	1005.86070	-398.16660	-389.28843	1037.78008	-290.55141	-341.52971	1531.96229	-236.97911	-284.16469	1447.13321	-51.92340	-262.53860	1488.19240	-412.80030	-203.72024	1450.66965	-208.79785	-201.99216	1452.00586	-256.45428	-293.73895	1271.50154	8.91442	-388.70382	1063.89694	-58.79938	-376.25014	1080.31789	22.07598	-298.43708	925.51348	37.85181	-277.51802	805.00590	45.20940	-314.14003	798.13562	67.45260	-232.27578	1323.35409	-497.86518	-278.13816	1097.69326	-474.57397	-239.67579	1123.37827	-540.93246	-98.34744	1043.02648	-488.29353	-14.93866	957.63206	-491.68281	-33.82757	938.96799	-531.88906	-249.98723	920.34357	-159.21101	-261.29895	914.96671	-372.23303	-236.26407	908.79504	-168.33355	-250.30205	925.51361	-346.72418	
2	0.01000000	-42.73859	537.35064	-112.74080	25.96836	430.11662	-124.15623	49.82827	88.56997	-146.31959	0.74502	51.73458	-205.95544	194.89058	53.33237	-99.04619	224.31970	101.96926	-160.66606	-425.60476	533.16443	-427.57111	-443.24621	417.53050	-407.73315	-705.62075	177.32627	-391.39294	-775.67984	186.51863	-339.49765	-622.90115	41.76296	-416.54462	-589.71879	47.78140	-345.84950	67.87456	326.12738	-146.86336	-32.00247	398.01814	-81.67941	14.24612	289.99717	-91.57484	-514.03230	459.08705	-448.43880	-560.08692	347.11700	-453.58275	-44.51541	784.35586	-126.03467	-3.78468	681.70899	-144.76669	-17.18530	642.16995	-89.48593	-116.60013	741.81365	-49.61894	-71.47170	633.56352	-75.46412	-261.47850	744.65334	-455.57869	-298.22659	613.48521	-443.45334	-369.80803	771.25368	-472.07647	-407.02124	639.19777	-450.17321	-153.29920	1004.97468	-124.45835	-365.51247	1029.86198	-193.43951	-163.88461	1003.55252	-396.33968	-372.94662	1037.08750	-289.30564	-327.11670	1532.55166	-233.96297	-269.91698	1446.96992	-49.11471	-248.28716	1489.03027	-410.01543	-189.13668	1451.63034	-205.89650	-187.05742	1453.30009	-253.53379	-278.73393	1271.02560	11.00013	-372.75484	1063.27986	-57.41075	-360.62000	1079.62553	23.41414	-282.99973	924.64018	38.71550	-262.40313	803.97143	45.72835	-299.02211	797.18962	68.11106	-219.41936	1323.52744	-495.43981	-267.50143	1098.38645	-472.41564	-228.97636	1123.76283	-538.74096	-88.96550	1040.24268	-487.11353	-7.62129	953.04568	-491.39662	-27.54208	935.01480	-531.61196	-233.78552	921.81381	-156.16966	-245.43293	913.07017	-369.01778	-220.53157	910.50942	-165.03811	-234.37723	923.98182	-343.55378	
3	0.02000000	-26.75970	539.33192	-110.69274	41.08979	430.26186	-123.59680	54.20212	88.48412	-145.55670	3.12547	53.99962	-205.39476	197.55708	47.52127	-99.66241	229.05402	94.65322	-161.48182	-405.83544	531.65574	-427.12455	-426.15976	416.21600	-408.54901	-695.21623	183.53939	-390.94448	-764.20905	196.57228	-337.70639	-621.02743	42.82383	-416.29166	-587.80357	46.99075	-345.72117	79.80016	325.22100	-146.71138	-16.50278	399.83847	-80.14800	26.50084	290.52091	-90.34236	-496.53353	460.38744	-447.20700	-546.08890	349.91885	-453.13906	-27.78169	786.07500	-120.61208	12.05034	683.17216	-140.14382	-2.12553	643.12709	-85.62936	-101.72872	742.99734	-46.48240	-56.87008	635.16681	-72.42992	-243.47653	744.08138	-453.99696	-278.94064	612.39326	-442.56269	-352.10210	769.74676	-469.74372	-388.12254	637.25341	-448.39741	-137.14382	1007.03208	-122.80325	-349.39831	1031.01114	-191.95316	-148.44901	1001.55179	-394.40714	-356.69420	1036.61071	-288.13696	-312.67661	1533.26792	-230.94514	-255.65804	1447.01507	-46.31646	-234.02488	1490.09632	-407.22596	-174.55382	1452.72801	-203.00012	-172.26992	1454.66867	-250.65209	-263.74083	1270.78933	13.12495	-356.79477	1062.89849	-56.03600	-344.98307	1079.15001	24.76403	-267.47968	924.02287	39.61047	-247.15832	803.20443	46.28660	-283.74973	796.49757	68.80151	-206.60777	1323.96990	-493.06530	-256.93160	1099.39003	-470.17363	-218.32042	1124.41009	-536.52207	-79.74652	1037.59318	-485.97985	-0.62228	948.53172	-491.21364	-21.49021	931.17633	-531.44093	-217.72812	923.45245	-153.16575	-229.61082	911.44843	-365.83597	-204.91770	912.32474	-161.81598	-218.47144	922.74582	-340.42290	
4	0.03000000	-11.24190	541.19595	-108.59605	55.41575	430.26460	-122.87266	58.07219	88.49707	-144.99138	5.22098	56.05408	-204.95505	199.74540	42.80038	-100.09544	233.16928	88.19952	-162.28052	-384.96486	529.83917	-426.98184	-408.07458	414.86156	-409.71619	-683.57845	190.22104	-390.49010	-751.17043	207.31751	-335.90178	-618.81395	44.67658	-415.99101	-585.51261	46.81621	-345.55927	90.86413	324.22883	-146.46963	-1.86053	401.43255	-78.63949	37.87423	290.93855	-89.15079	-477.85070	461.69143	-446.13289	-531.00389	352.89462	-452.85536	-11.22739	788.04094	-115.24710	27.84415	684.93770	-135.55951	12.88128	644.39401	-81.80161	-86.93918	744.42402	-43.35253	-42.24142	636.90828	-69.35430	-225.10853	743.64066	-452.49978	-258.81838	611.32467	-441.94336	-334.01791	767.93384	-467.42493	-368.43049	634.94162	-446.93963	-121.22760	1009.40449	-121.02985	-333.53241	1032.34442	-190.56653	-133.22698	1000.08847	-392.28491	-340.61636	1036.50851	-287.07878	-298.19328	1534.21004	-227.92856	-241.37122	1447.42372	-43.54336	-219.74605	1491.55964	-404.43252	-159.96865	1454.05943	-200.12248	-157.71949	1456.17283	-247.84018	-248.76815	1270.97566	15.31793	-340.82159	1062.93210	-54.67989	-329.34010	1079.05753	26.13936	-251.81299	923.86138	40.56785	-231.66981	802.91696	46.91907	-268.19964	796.25790	69.55045	-193.87234	1324.88743	-490.78315	-246.47446	1100.94261	-467.78849	-207.74593	1125.52276	-534.25842	-70.82568	1035.18575	-484.93911	5.82395	944.16328	-491.22695	-15.86778	927.55009	-531.46252	-201.91771	925.38720	-150.21087	-213.86285	910.30603	-362.69574	-189.47999	914.29934	-158.70619	-202.60186	922.02766	-337.34961	
